<svg xmlns="http://www.w3.org/2000/svg" width="64" height="64" id="camera">
  <path d="M24 0C10.751 0 0 10.749 0 23.998 0 37.248 10.752 48 24 48s24-10.753 24-24.002C48 10.748 37.249 0 24 0zm0 1.008c12.704 0 22.992 10.285 22.992 22.99 0 12.705-10.288 22.994-22.992 22.994S1.008 36.702 1.008 23.998c0-12.705 10.288-22.99 22.992-22.99zM13.457 13.029c-.244.01-.526.068-1.05.219.169.28.318.591.468.873.458-.123.782-.083 1.125-.06l.281-.97c-.374-.035-.58-.073-.824-.062zm1.887.782-.75.625c.223.175.255.458.375.687l.937-.281c-.058-.42-.332-.705-.562-1.031zm-3.844.191c-.306.332-.308.56-.469 1.184l1 .097c.108-.403.173-.482.25-.687-.294-.15-.53-.385-.781-.594zm8.5.965v3h1v-2h6v2h1v-3h-8zm-5.063.842c-.013.328-.23.466-.374.72l.78.625c.294-.292.402-.671.563-1.033l-.969-.312zM12.095 16c-.527.141-.938.373-.938.373s.541.822.75 1.031l.656-.781c-.168-.169-.274-.429-.468-.623zm1.875.873c-.308.082-.452.042-.781.063l-.126 1c.378 0 .772-.026 1.188-.094l-.281-.969zM32 16.969v1h4v-1h-4zM10.4 18.96c-.019 0-.037.002-.056.012a.5.5 0 0 0-.344.5v15a.5.5 0 0 0 .5.5h27a.5.5 0 0 0 .5-.5v-15a.5.5 0 0 0-.5-.5h-27a.338.338 0 0 0-.1-.012zm.6 1.008h26v14h-9.656a6.054 6.054 0 0 0 2.656-5c0-3.308-2.692-6-6-6s-6 2.692-6 6c0 2.067 1.06 3.92 2.656 5H11v-14zm16.84 2.05c-.03 0-.06.01-.09.012a.5.5 0 0 0-.156.938c1.685 1.014 2.893 2.665 3.281 4.593.022.786 1.242.55.969-.187a8.008 8.008 0 0 0-3.719-5.281.494.494 0 0 0-.285-.074zM24 23.97c2.767 0 5 2.232 5 5 0 2.594-1.974 4.744-4.5 5h-1c-2.526-.256-4.5-2.406-4.5-5 0-2.768 2.233-5 5-5zm0 1c-2.203 0-4 1.797-4 4 0 2.203 1.797 4 4 4 2.203 0 4-1.797 4-4 0-2.203-1.797-4-4-4zm0 1c1.663 0 3 1.337 3 3s-1.337 3-3 3-3-1.337-3-3 1.337-3 3-3z" color="#000" font-family="Sans" font-weight="400" overflow="visible" style="line-height:normal;-inkscape-font-specification:Sans;text-indent:0;text-align:start;text-decoration-line:none;text-transform:none;block-progression:tb;marker:none"></path>
</svg>
