<svg xmlns="http://www.w3.org/2000/svg" enable-background="new 0 0 1024 1024" viewBox="0 0 1024 1024" id="coding">
  <rect width="48" height="15" x="192" y="824.5"></rect>
  <rect width="32" height="15" x="768" y="824.5"></rect>
  <rect width="16" height="15" x="256" y="824.5"></rect>
  <path d="M540.37,855.5h-56.74c-10.43,0-19.23-7.46-20.94-17.74l-4.26-25.51c-0.39-2.35-2.12-4.29-4.4-4.95
			c-14.58-4.24-28.69-10.08-41.94-17.38c-2.1-1.15-4.7-1.01-6.63,0.37l-21.06,15.05c-8.47,6.05-19.98,5.1-27.35-2.25l-40.13-40.12
			c-2.44-2.46-4.26-5.48-5.27-8.75c-1.94-6.28-0.82-13.24,3-18.6l15.04-21.06c1.39-1.94,1.54-4.54,0.38-6.63
			c-7.31-13.26-13.15-27.37-17.38-41.94c-0.66-2.29-2.61-4.02-4.95-4.41l-25.52-4.25c-10.28-1.71-17.74-10.51-17.74-20.94v-56.74
			c0-10.42,7.46-19.23,17.74-20.94l25.51-4.26c2.35-0.39,4.29-2.12,4.95-4.4c4.24-14.58,10.08-28.69,17.38-41.94
			c1.15-2.09,1.01-4.7-0.38-6.63l-15.05-21.06c-6.05-8.47-5.1-19.97,2.25-27.35l40.13-40.13c7.38-7.36,18.88-8.31,27.35-2.26
			l21.06,15.05c1.93,1.38,4.53,1.53,6.63,0.37c13.25-7.3,27.36-13.15,41.94-17.38c2.29-0.66,4.02-2.6,4.4-4.94l4.26-25.53
			c1.71-10.27,10.51-17.74,20.94-17.74h56.74c10.42,0,19.23,7.46,20.94,17.74l4.25,25.52c0.39,2.34,2.12,4.29,4.41,4.95
			c14.57,4.23,28.68,10.08,41.94,17.38c2.09,1.15,4.69,1,6.62-0.38l21.07-15.05c8.47-6.05,19.97-5.1,27.35,2.25l40.13,40.13
			c7.36,7.38,8.31,18.88,2.26,27.35l-15.05,21.06c-1.38,1.93-1.53,4.54-0.37,6.63c7.3,13.25,13.15,27.36,17.38,41.94
			c0.66,2.29,2.6,4.02,4.94,4.4l25.53,4.26c10.27,1.71,17.73,10.51,17.73,20.94v56.74c0,10.42-7.46,19.23-17.74,20.94l-25.52,4.25
			c-2.34,0.39-4.29,2.12-4.95,4.41c-4.23,14.56-10.08,28.67-17.38,41.94c-1.15,2.09-1,4.69,0.38,6.63l15.05,21.07
			c3.83,5.36,4.95,12.32,3,18.61c-1,3.26-2.82,6.28-5.24,8.72l-40.14,40.14c-7.38,7.36-18.88,8.31-27.35,2.26l-21.06-15.04
			c-1.94-1.39-4.54-1.54-6.63-0.38c-13.26,7.31-27.37,13.15-41.94,17.38c-2.29,0.66-4.02,2.61-4.41,4.96l-4.25,25.51
			C559.6,848.04,550.79,855.5,540.37,855.5z M409.08,774.15c3.52,0,7.06,0.87,10.24,2.62c12.29,6.77,25.37,12.19,38.88,16.12
			c7.8,2.26,13.7,8.9,15.02,16.9l4.26,25.51c0.5,3.02,3.08,5.21,6.14,5.21h56.74c3.06,0,5.64-2.19,6.14-5.2l4.25-25.52
			c1.34-8,7.24-14.63,15.03-16.89c13.5-3.92,26.58-9.34,38.88-16.12c7.13-3.92,16-3.4,22.6,1.32l21.05,15.03
			c2.49,1.78,5.87,1.5,8.03-0.67l40.11-40.11c0.71-0.72,1.24-1.58,1.53-2.55c0.57-1.86,0.25-3.91-0.88-5.48l-15.04-21.06
			c-4.72-6.59-5.24-15.46-1.32-22.59c6.77-12.3,12.2-25.38,16.12-38.88c2.26-7.79,8.89-13.69,16.89-15.03l25.52-4.25
			c3.02-0.5,5.2-3.08,5.2-6.14v-56.74c0-3.06-2.19-5.64-5.2-6.14l-25.53-4.26c-7.99-1.32-14.63-7.22-16.89-15.02
			c-3.93-13.51-9.35-26.59-16.12-38.88c-3.92-7.12-3.41-15.98,1.31-22.59l15.05-21.06c1.78-2.49,1.5-5.87-0.67-8.03l-40.11-40.11
			c-2.16-2.16-5.54-2.44-8.03-0.66l-21.06,15.04c-6.59,4.72-15.46,5.24-22.59,1.32c-12.3-6.77-25.38-12.2-38.88-16.12
			c-7.79-2.26-13.69-8.89-15.03-16.88l-4.25-25.53c-0.5-3.02-3.08-5.2-6.14-5.2h-56.74c-3.06,0-5.64,2.19-6.14,5.2l-4.26,25.53
			c-1.32,7.99-7.21,14.63-15.02,16.89c-13.51,3.93-26.6,9.35-38.88,16.12c-7.12,3.92-15.99,3.41-22.59-1.31l-21.06-15.05
			c-2.49-1.78-5.86-1.49-8.03,0.67l-40.11,40.11c-2.16,2.16-2.44,5.54-0.66,8.03l15.05,21.06c4.72,6.61,5.23,15.47,1.31,22.59
			c-6.77,12.29-12.19,25.37-16.12,38.88c-2.26,7.8-8.9,13.7-16.9,15.02l-25.51,4.26c-3.02,0.5-5.21,3.08-5.21,6.14v56.74
			c0,3.06,2.19,5.64,5.2,6.14l25.52,4.25c8,1.34,14.63,7.24,16.89,15.03c3.92,13.5,9.34,26.58,16.12,38.88
			c3.92,7.13,3.41,15.99-1.32,22.6l-15.03,21.05c-1.12,1.57-1.45,3.62-0.88,5.47c0.3,0.98,0.82,1.84,1.56,2.58l40.1,40.1
			c2.16,2.16,5.54,2.44,8.03,0.66l21.06-15.05C400.39,775.47,404.73,774.15,409.08,774.15z"></path>
  <path d="M442.7 661.3l-48-48c-2.93-2.93-2.93-7.68 0-10.61l48-48 10.61 10.61-42.7 42.7 42.7 42.7L442.7 661.3zM581.3 661.3L570.7 650.7l42.7-42.7-42.7-42.7 10.61-10.61 48 48c2.93 2.93 2.93 7.68 0 10.61L581.3 661.3z"></path>
  <rect width="172.33" height="15" x="425.84" y="600.5" transform="rotate(-68.199 512.004 607.99)"></rect>
  <path d="M879.75,759.5H705.17c-2.38,0-4.62-1.13-6.04-3.05c-1.41-1.92-1.83-4.39-1.13-6.67c0.57-1.85,0.24-3.9-0.88-5.47
			l-15.04-21.06c-4.72-6.59-5.24-15.46-1.32-22.59c6.77-12.3,12.2-25.38,16.12-38.88c2.26-7.79,8.89-13.69,16.89-15.03l25.52-4.25
			c3.02-0.5,5.2-3.08,5.2-6.14v-56.74c0-3.06-2.19-5.64-5.2-6.14l-25.53-4.26c-7.99-1.32-14.63-7.22-16.89-15.02
			c-3.93-13.51-9.35-26.59-16.12-38.88c-3.92-7.12-3.41-15.98,1.31-22.59l15.05-21.06c1.78-2.49,1.5-5.87-0.67-8.03l-40.11-40.11
			c-2.16-2.16-5.54-2.44-8.03-0.66l-21.06,15.04c-6.59,4.72-15.46,5.24-22.59,1.32c-12.3-6.77-25.38-12.2-38.88-16.12
			c-7.79-2.26-13.69-8.89-15.03-16.88l-4.25-25.53c-0.5-3.02-3.08-5.2-6.14-5.2h-56.74c-3.06,0-5.64,2.19-6.14,5.2l-4.26,25.53
			c-1.32,7.99-7.21,14.63-15.02,16.89c-13.51,3.93-26.6,9.35-38.88,16.12c-7.12,3.92-15.99,3.41-22.59-1.31l-21.06-15.05
			c-2.49-1.78-5.86-1.49-8.03,0.67l-40.11,40.11c-2.16,2.16-2.44,5.54-0.66,8.03l15.05,21.06c4.71,6.61,5.23,15.47,1.31,22.59
			c-6.77,12.29-12.19,25.37-16.12,38.88c-2.26,7.8-8.9,13.7-16.9,15.02l-25.51,4.26c-3.02,0.5-5.21,3.08-5.21,6.14v56.74
			c0,3.06,2.19,5.64,5.2,6.14l25.52,4.25c8,1.34,14.63,7.24,16.89,15.03c3.92,13.5,9.34,26.58,16.12,38.88
			c3.92,7.13,3.41,15.99-1.32,22.6l-15.03,21.05c-1.12,1.57-1.45,3.62-0.88,5.47c0.7,2.28,0.28,4.75-1.13,6.67
			c-1.41,1.92-3.65,3.05-6.04,3.05H144.25c-13.1,0-23.75-10.65-23.75-23.75v-543.5c0-13.1,10.65-23.75,23.75-23.75h735.5
			c13.1,0,23.75,10.65,23.75,23.75v543.5C903.5,748.85,892.85,759.5,879.75,759.5z M712.99,744.5h166.76c4.82,0,8.75-3.92,8.75-8.75
			v-543.5c0-4.82-3.93-8.75-8.75-8.75h-735.5c-4.82,0-8.75,3.93-8.75,8.75v543.5c0,4.83,3.93,8.75,8.75,8.75h166.76
			c0.52-3.17,1.75-6.23,3.65-8.89l15.04-21.06c1.39-1.94,1.54-4.54,0.38-6.63c-7.31-13.26-13.15-27.37-17.38-41.94
			c-0.66-2.29-2.61-4.02-4.95-4.41l-25.52-4.25c-10.28-1.71-17.74-10.51-17.74-20.94v-56.74c0-10.42,7.46-19.23,17.74-20.94
			l25.51-4.26c2.35-0.39,4.29-2.12,4.95-4.4c4.24-14.58,10.08-28.69,17.38-41.94c1.15-2.09,1.01-4.7-0.38-6.63l-15.05-21.06
			c-6.05-8.47-5.1-19.97,2.25-27.35l40.13-40.13c7.38-7.36,18.88-8.31,27.35-2.26l21.06,15.05c1.93,1.38,4.53,1.53,6.63,0.37
			c13.25-7.3,27.36-13.15,41.94-17.38c2.29-0.66,4.02-2.6,4.4-4.94l4.26-25.53c1.71-10.27,10.51-17.74,20.94-17.74h56.74
			c10.42,0,19.23,7.46,20.94,17.74l4.25,25.52c0.39,2.34,2.12,4.29,4.41,4.95c14.57,4.23,28.68,10.08,41.94,17.38
			c2.09,1.15,4.69,1,6.62-0.38l21.07-15.05c8.47-6.05,19.97-5.1,27.35,2.25l40.13,40.13c7.36,7.38,8.31,18.88,2.26,27.35
			l-15.05,21.06c-1.38,1.93-1.53,4.54-0.37,6.63c7.3,13.25,13.15,27.36,17.38,41.94c0.66,2.29,2.6,4.02,4.94,4.4l25.53,4.26
			c10.27,1.71,17.73,10.51,17.73,20.94v56.74c0,10.42-7.46,19.23-17.74,20.94l-25.52,4.25c-2.34,0.39-4.29,2.12-4.95,4.41
			c-4.23,14.56-10.08,28.67-17.38,41.94c-1.15,2.09-1,4.69,0.38,6.63l15.05,21.07C711.23,738.27,712.47,741.33,712.99,744.5z"></path>
  <rect width="768" height="15" x="128" y="232.5"></rect>
  <rect width="16" height="15" x="160" y="200.5"></rect>
  <rect width="16" height="15" x="192" y="200.5"></rect>
  <rect width="16" height="15" x="224" y="200.5"></rect>
  <rect width="144" height="15" x="192" y="312.5"></rect>
  <rect width="112" height="15" x="192" y="376.5"></rect>
  <rect width="64" height="15" x="192" y="440.5"></rect>
  <rect width="48" height="15" x="368" y="312.5"></rect>
  <rect width="144" height="15" x="688" y="312.5"></rect>
  <rect width="112" height="15" x="720" y="376.5"></rect>
  <rect width="64" height="15" x="768" y="440.5"></rect>
  <rect width="48" height="15" x="608" y="312.5"></rect>
</svg>
