<svg xmlns="http://www.w3.org/2000/svg" width="1024" height="1024" id="gift">
  <path d="M256.09 162.816C261.915 147.058 267.094 134.35 279.753 122.614C290.743 112.426 309.085 104.721 324.14 105.248C341.821 99.4759 364.889 126.137 355.512 147.878C350.427 159.667 338.471 165.28 327.217 169.775L373.566 169.773C390.528 169.777 410.271 166.076 411.119 189.875C411.368 196.852 411.173 203.885 411.184 210.871C411.211 228.86 413.31 241.241 390.891 241.978C390.659 246.02 390.884 250.206 390.884 254.262L390.897 355.22C390.898 368.468 391.336 381.847 390.813 395.073C390.264 408.932 376.686 406.508 366.855 406.503L146.357 406.497C141.063 406.499 135.737 406.702 130.45 406.495C118.578 403.962 120.96 389.301 120.968 380.462L120.981 241.978C95.5173 242.491 100.938 220.512 100.953 202.318C100.982 167.252 104.346 169.8 134.593 169.79L185.916 169.775C174.111 165.845 161.113 159.793 156.437 147.398C150.515 131.702 157.338 113.055 173.496 107.276C187.71 102.191 204.082 106.361 217.267 112.633C238.929 122.936 248.444 141.267 256.09 162.816ZM324.14 114.834C292.384 115.222 271.125 140.499 265.051 169.775C272.45 170.524 280.448 169.424 287.808 168.479C302.099 166.431 335.062 159.886 343.997 148.103C356.4 131.746 335.915 109.394 324.14 114.834ZM183.894 114.834C162.53 117.851 157.288 141.055 173.2 152.792C186.385 162.517 213.488 166.443 229.746 169.407C235.647 169.469 241.599 170.428 247.478 169.775C242.721 151.772 234.037 133.519 217.319 123.743C208.915 118.829 193.582 113.3 183.894 114.834ZM120.981 179.614C118.837 179.622 116.693 179.637 114.55 179.614C108.091 183.835 110.669 194.656 110.666 201.981L110.668 218.117C110.685 235.021 113.376 232.365 128.116 232.262L216.412 232.247L226.049 232.247L226.049 179.614L120.981 179.614ZM235.778 179.614L235.778 232.247C249.222 232.255 262.691 232.445 276.132 232.247L276.132 179.614L235.778 179.614ZM328.623 179.614L285.786 179.614C285.781 197.153 285.607 214.709 285.786 232.247L358.875 232.247L383.549 232.267C389.006 232.272 399.719 234.222 401.189 226.697C402.45 220.244 401.69 196.053 401.448 188.839C401.138 179.61 394.008 179.62 386.701 179.613L328.623 179.614ZM130.45 241.978L130.445 374.495C130.445 378.192 129.42 393.623 131.251 396.14C134.384 397.268 158.702 396.686 163.67 396.686L226.049 396.679C226.239 390.999 226.054 385.271 226.052 379.585L226.049 241.978L130.45 241.978ZM235.778 241.978L235.778 396.679L262.722 396.684C267.172 396.685 271.689 396.85 276.132 396.679L276.132 241.978C262.691 241.978 249.215 241.76 235.778 241.978ZM285.786 241.978L285.786 396.679L349.333 396.685C359.89 396.686 370.615 397.079 381.155 396.679L381.159 259.236C381.159 253.503 381.34 247.705 381.155 241.978L296.063 241.97C292.658 241.97 289.182 241.811 285.786 241.978Z" transform="scale(2)"></path>
</svg>
