<svg xmlns="http://www.w3.org/2000/svg" width="512" height="512" fill="none" viewBox="0 0 512 512" id="product">
  <path fill="#fff" d="M350.91 395.619C267.52 395.449 167.34 399.109 84.14 404.829C84.1 341.189 78.17 269.939 69.79 206.209C70.71 206.159 71.64 206.119 72.57 206.069C103.92 204.509 136.72 202.849 169.89 201.159C167.63 230.869 170.77 261.469 176.63 289.619C175.74 285.319 200.57 273.079 203.93 273.379C214.67 274.339 228.24 282.949 237.64 287.929C231.42 262.059 229.72 224.419 232.61 197.969C268.88 196.129 304.76 194.309 338.8 192.619V193.769C338.57 258.859 342.61 331.149 350.91 395.619Z"></path>
  <path fill="#fff" d="M429.76 107.83C405.88 132.86 363.8 168.1 338.8 193.77V192.62C304.76 194.31 268.88 196.13 232.61 197.97 247.65 174.29 282.85 134.19 304.14 109.52 346 107.39 387.88 106.42 429.76 107.83zM250.17 112.83C220.74 139.31 192.72 168.72 169.9 201.03 169.9 201.07 169.89 201.12 169.89 201.16 136.72 202.85 103.92 204.51 72.5703 206.07 92.9103 185.67 120.6 156.63 140.5 136.73 145.85 131.38 151.34 125.93 158.18 122.71 165.36 119.33 173.48 118.65 181.39 118.03 204.3 116.23 227.23 114.43 250.17 112.83zM237.64 287.931C228.24 282.951 214.67 274.341 203.93 273.381 200.57 273.081 175.74 285.321 176.63 289.621 170.77 261.471 167.63 230.871 169.89 201.161 190.75 200.101 211.74 199.031 232.61 197.971 229.72 224.421 231.42 262.061 237.64 287.931z"></path>
  <path fill="#fff" d="M304.14 109.52C282.85 134.19 247.65 174.29 232.61 197.97 211.74 199.03 190.75 200.1 169.89 201.16 169.89 201.12 169.9 201.07 169.9 201.03 192.72 168.72 220.74 139.31 250.17 112.83 268.15 111.57 286.15 110.44 304.14 109.52zM429.76 107.83C405.88 132.86 363.8 168.1 338.8 193.77 338.57 258.86 342.61 331.15 350.91 395.62 378.78 372.2 413.49 332.32 441.36 308.9 436.84 244.35 434.28 172.38 429.76 107.83zM376.22 322.47C375.38 323.02 374.39 323.6 373.43 323.3 372.17 322.89 371.85 321.29 371.74 319.97 371.21 313.42 370.67 303.35 370.14 295.92 383.11 285.84 401.2 273.31 414.2 265.6 415.36 264.91 416.78 264.21 418 264.79 419.04 265.29 419.47 266.51 419.78 267.62 421.15 272.54 421.97 283.26 422.24 289.56 406.44 300.34 392.33 311.8 376.22 322.47z"></path>
  <path fill="#fff" d="M422.24 289.56C406.44 300.34 392.33 311.8 376.22 322.47C375.38 323.02 374.39 323.6 373.43 323.3C372.17 322.89 371.85 321.29 371.74 319.97C371.21 313.42 370.67 303.35 370.14 295.92C383.11 285.84 401.2 273.31 414.2 265.6C415.36 264.91 416.78 264.21 418 264.79C419.04 265.29 419.47 266.51 419.78 267.62C421.15 272.54 421.97 283.26 422.24 289.56Z"></path>
  <path fill="#000" d="M68.4704 207.01C71.9404 232.56 74.7304 258.2 76.8604 283.89C78.9904 309.61 80.4404 335.39 81.2204 361.19C81.6604 375.73 81.8804 390.28 81.8904 404.84C81.8904 405.99 82.9204 407.17 84.1404 407.09C116.47 404.87 148.84 403.23 181.22 402.08C213.52 400.94 245.84 400.28 278.15 399.98C296.38 399.81 314.6 399.76 332.83 399.8C335.73 399.81 335.73 395.31 332.83 395.3C300.42 395.23 268.01 395.45 235.61 396.09C203.3 396.73 170.99 397.79 138.72 399.38C120.52 400.28 102.32 401.34 84.1404 402.59C84.8904 403.34 85.6404 404.09 86.3904 404.84C86.3704 378.86 85.6704 352.87 84.2804 326.93C82.8904 300.98 80.8204 275.07 78.0704 249.24C76.5304 234.74 74.7604 220.27 72.8004 205.82C72.6404 204.61 71.0904 203.96 70.0304 204.25C68.7404 204.6 68.3104 205.8 68.4704 207.01Z"></path>
  <path fill="#000" d="M77.7798 207.87C111.75 206.18 145.72 204.49 179.68 202.79 213.64 201.09 247.62 199.41 281.58 197.71 300.65 196.76 319.73 195.81 338.8 194.86 338.05 194.11 337.3 193.36 336.55 192.61 336.44 218.19 336.99 243.77 338.2 269.32 339.4 294.69 341.26 320.03 343.77 345.31 345.19 359.65 346.83 373.97 348.66 388.26 348.81 389.47 349.58 390.51 350.91 390.51 352.01 390.51 353.32 389.47 353.16 388.26 349.9 362.89 347.29 337.43 345.34 311.93 343.41 286.6 342.12 261.23 341.49 235.84 341.13 221.43 340.99 207.02 341.05 192.61 341.05 191.44 340.01 190.3 338.8 190.36 304.83 192.05 270.86 193.74 236.9 195.44 202.94 197.14 168.96 198.82 135 200.52 115.93 201.47 96.8498 202.42 77.7798 203.37 74.8998 203.52 74.8798 208.02 77.7798 207.87zM80.6603 199.721C98.4903 181.891 116.33 164.061 134.16 146.241 138.35 142.051 142.48 137.771 146.8 133.711 150.71 130.031 154.94 126.591 159.88 124.391 165.05 122.101 170.78 121.241 176.37 120.711 182.44 120.131 188.54 119.721 194.62 119.251 219.71 117.291 244.8 115.371 269.91 113.761 294.89 112.161 319.9 110.851 344.93 110.111 370.06 109.361 395.2 109.171 420.33 109.811 423.47 109.891 426.61 109.981 429.76 110.091 429.23 108.811 428.7 107.531 428.17 106.251 409.01 126.331 389.85 146.421 370.7 166.501 365.23 172.241 359.75 177.981 354.28 183.721 352.28 185.821 355.46 189.001 357.46 186.901 376.62 166.821 395.78 146.731 414.93 126.651 420.4 120.911 425.88 115.171 431.35 109.431 432.72 108.001 431.72 105.651 429.76 105.591 404.4 104.751 379.02 104.761 353.66 105.381 328.28 106.001 302.93 107.231 277.59 108.791 252.24 110.351 226.91 112.251 201.59 114.221 195.2 114.721 188.82 115.221 182.43 115.721 176.68 116.171 170.86 116.581 165.23 117.931 159.87 119.211 154.88 121.511 150.45 124.781 145.99 128.071 142.08 131.991 138.17 135.901 120.17 153.891 102.17 171.891 84.1703 189.881 81.9403 192.111 79.7103 194.341 77.4803 196.571 75.4303 198.591 78.6103 201.771 80.6603 199.721z"></path>
  <path fill="#000" d="M425.56 115.24C427.32 140.43 429.09 165.62 430.85 190.82 432.61 216.01 434.37 241.2 436.14 266.4 437.13 280.57 438.12 294.74 439.11 308.91 439.33 308.38 439.55 307.85 439.77 307.32 418.27 325.39 396.68 343.35 375.14 361.37 368.99 366.51 362.85 371.66 356.72 376.81 355.79 377.59 355.91 379.19 356.72 379.99 357.64 380.91 358.97 380.77 359.9 379.99 374.91 367.38 389.96 354.82 405.01 342.25 412.59 335.92 420.16 329.6 427.73 323.26 431.47 320.13 435.21 317 438.94 313.86 439.88 313.07 440.81 312.29 441.75 311.5 442.88 310.55 443.63 309.93 443.58 308.37 443.49 305.83 443.22 303.29 443.05 300.76 441.67 280.99 440.28 261.22 438.9 241.45 437.51 221.59 436.12 201.74 434.73 181.88 433.35 162.11 431.96 142.34 430.58 122.57 430.41 120.12 430.24 117.67 430.07 115.22 429.86 112.36 425.36 112.34 425.56 115.24zM167.65 201.029C165.89 224.379 167.38 247.879 170.97 270.989 171.97 277.429 173.14 283.839 174.47 290.219 174.72 291.409 176.12 292.099 177.24 291.789 178.51 291.439 179.02 290.219 178.81 289.019 178.93 289.739 178.87 289.519 178.87 289.299 178.88 289.919 178.79 289.799 178.85 289.549 178.91 289.329 179.08 289.209 178.77 289.719 178.82 289.639 178.86 289.489 178.93 289.429 179 289.359 179.08 289.209 179.13 289.119 179.37 288.719 178.78 289.509 179.11 289.149 179.35 288.879 179.59 288.619 179.85 288.359 181.18 287.059 181.98 286.529 183.58 285.459 187.17 283.059 190.99 280.999 194.87 279.119 197.9 277.659 200.22 276.559 203.5 275.659 203.6 275.629 203.72 275.629 203.82 275.599 204.12 275.479 203.4 275.489 203.59 275.629 203.62 275.649 204.32 275.659 204.28 275.659 205.71 275.789 207.13 276.129 208.51 276.499 211.57 277.319 214.54 278.479 217.42 279.789 223.98 282.779 230.16 286.499 236.53 289.869 238.28 290.799 240.3 289.269 239.84 287.329 235.05 267.319 232.96 246.719 233.63 226.159 233.82 220.309 234.24 214.469 234.87 208.659 235 207.449 233.74 206.409 232.62 206.409 231.29 206.409 230.5 207.449 230.37 208.659 228.12 229.439 228.7 250.449 232.01 271.089 232.95 276.949 234.12 282.759 235.5 288.529 236.6 287.679 237.7 286.839 238.81 285.989 232.81 282.799 226.96 279.309 220.81 276.419 217.56 274.889 214.23 273.479 210.79 272.469 208.45 271.779 205.59 270.869 203.13 271.199 199.77 271.659 196.44 273.429 193.42 274.859 189.26 276.829 185.16 279.019 181.33 281.579 178.59 283.409 173.83 286.309 174.49 290.219 175.94 289.819 177.38 289.419 178.83 289.019 174.16 266.519 171.4 243.579 171.43 220.579 171.44 214.049 171.68 207.529 172.17 201.029 172.26 199.819 171.07 198.779 169.92 198.779 168.61 198.779 167.74 199.819 167.65 201.029zM155.28 338.941C183.51 337.911 211.73 336.871 239.96 335.841 247.93 335.551 255.9 335.261 263.87 334.971 266.76 334.861 266.77 330.361 263.87 330.471 235.64 331.501 207.42 332.541 179.19 333.571 171.22 333.861 163.25 334.151 155.28 334.441 152.4 334.541 152.38 339.041 155.28 338.941zM115.78 372.071C141.36 369.421 166.99 367.371 192.67 365.951 218.26 364.531 243.88 363.731 269.51 363.541 283.98 363.431 298.45 363.521 312.91 363.811 315.81 363.871 315.81 359.371 312.91 359.311 287.2 358.811 261.48 358.921 235.78 359.651 210.16 360.381 184.56 361.721 159 363.681 144.57 364.791 130.16 366.091 115.77 367.581 114.56 367.711 113.52 368.521 113.52 369.831 113.53 370.941 114.56 372.201 115.78 372.071z"></path>
  <path fill="#000" d="M173.52 202.54C182.58 189.72 192.2 177.31 202.36 165.35 212.54 153.36 223.25 141.81 234.45 130.76 240.77 124.52 247.25 118.44 253.88 112.52 256.04 110.59 252.85 107.41 250.7 109.34 238.86 119.93 227.48 131.03 216.62 142.62 205.81 154.16 195.51 166.17 185.77 178.62 180.22 185.71 174.84 192.92 169.65 200.27 168.95 201.26 169.47 202.77 170.46 203.35 171.57 204.01 172.82 203.54 173.52 202.54zM238.81 197.299C251.63 177.129 265.53 157.659 280.49 139.029 284.7 133.789 288.99 128.609 293.36 123.499 294.15 122.579 294.27 121.219 293.36 120.319 292.55 119.509 290.97 119.389 290.18 120.319 274.51 138.659 259.83 157.849 246.26 177.789 242.39 183.479 238.61 189.229 234.92 195.039 233.36 197.479 237.26 199.739 238.81 197.299zM367.66 297.52C368.18 303.86 368.69 310.21 369.21 316.55 369.42 319.07 369.16 322.48 371.1 324.43 373.6 326.93 376.67 324.87 378.98 323.31 388.31 317.01 396.99 309.88 405.86 302.97 411.03 298.94 416.33 295.07 421.79 291.44 424.19 289.85 421.94 285.95 419.52 287.55 410.75 293.38 402.52 299.91 394.26 306.43 390.33 309.54 386.36 312.61 382.29 315.53 379.98 317.19 377.65 318.82 375.28 320.38 374.94 320.61 374.45 321.07 374.02 321.12 374.44 321.07 374.16 321.47 374.16 320.93 374.16 320.56 373.99 320.1 373.96 319.72 373.89 318.91 373.83 318.09 373.76 317.28 373.22 310.69 372.69 304.11 372.15 297.52 372.05 296.31 371.19 295.27 369.9 295.27 368.77 295.27 367.56 296.31 367.66 297.52z"></path>
  <path fill="#000" d="M374.63 295.719C381.91 289.879 389.42 284.329 397.14 279.089C401.02 276.459 404.94 273.909 408.92 271.429C410.91 270.189 412.91 268.969 414.92 267.779C415.32 267.539 416.48 266.639 417.02 266.819C417.26 266.899 417.6 268.209 417.73 268.679C419.13 273.859 419.89 279.169 420.05 284.519C420.14 287.409 424.64 287.419 424.55 284.519C424.39 279.169 423.67 273.819 422.36 268.629C421.79 266.369 421.18 263.769 418.85 262.729C416.36 261.609 413.94 263.109 411.84 264.369C402.86 269.739 394.13 275.509 385.66 281.659C380.83 285.169 376.09 288.799 371.43 292.529C370.48 293.289 370.64 294.919 371.43 295.709C372.39 296.649 373.68 296.479 374.63 295.719Z"></path>
</svg>
