<svg xmlns="http://www.w3.org/2000/svg" viewBox="0 0 512 512" id="social-media">
  <path d="M386.347 454.988a5.333 5.333 0 0 0-5.333 5.333V480c0 11.763-9.571 21.333-21.333 21.333H149.278c-11.763 0-21.333-9.571-21.333-21.333V327.518a5.333 5.333 0 0 0-10.666 0V480c0 17.645 14.354 32 32 32H359.68c17.645 0 32-14.354 32-32v-19.68a5.333 5.333 0 0 0-5.333-5.332zm5.333-134.081V187.094a5.333 5.333 0 0 0-10.666 0v133.813a5.333 5.333 0 0 0 10.666 0zM122.612 189.866a5.333 5.333 0 0 0 5.333-5.333V32c0-11.763 9.571-21.333 21.333-21.333h29.383V30.93c0 11.763 9.571 21.333 21.333 21.333h108.945c11.763 0 21.333-9.571 21.333-21.333V10.666h29.406c11.763 0 21.333 9.571 21.333 21.333V62.61a5.333 5.333 0 0 0 10.666 0V32c0-17.645-14.354-32-32-32H149.278c-17.645 0-32 14.354-32 32v152.534a5.334 5.334 0 0 0 5.334 5.332zM319.607 30.929c0 5.883-4.784 10.666-10.667 10.666H199.995c-5.883 0-10.666-4.784-10.666-10.666V10.703h130.279v20.226h-.001z"></path>
  <path d="M238.43 31.483h32.076a5.333 5.333 0 0 0 0-10.666H238.43a5.333 5.333 0 0 0 0 10.666zm183.555 47.154h-79.677c-12.612 0-22.872 10.261-22.872 22.872v33.589l-29.584 26.688c-3.62 3.269-1.3 9.294 3.573 9.294h128.561c12.612 0 22.872-10.261 22.872-22.872V101.51c-.001-12.612-10.261-22.873-22.873-22.873zm12.206 69.571c0 6.729-5.476 12.206-12.206 12.206H307.3l21.042-18.982a5.343 5.343 0 0 0 1.76-3.961V101.51c0-6.729 5.476-12.206 12.206-12.206h79.677c6.729 0 12.206 5.476 12.206 12.206v46.698zM178.098 286.724v-61.38c0-13.669-11.12-24.789-24.789-24.789h-61.38c-13.667 0-24.787 11.12-24.787 24.789v61.38c0 13.667 11.12 24.787 24.787 24.787h61.38c13.67-.001 24.789-11.121 24.789-24.787zm-100.289 0v-61.38c0-7.787 6.333-14.122 14.12-14.122h61.38c7.787 0 14.122 6.336 14.122 14.122v61.38c0 7.787-6.336 14.12-14.122 14.12h-61.38c-7.787 0-14.12-6.334-14.12-14.12z"></path>
  <path d="M128.432 222.992c-7.461 0-13.528 6.067-13.528 13.528v14.18h-6.289a5.333 5.333 0 0 0 0 10.666h6.289v22.372a5.333 5.333 0 0 0 10.666 0v-22.372h6.287a5.333 5.333 0 0 0 0-10.666h-6.287v-14.18a2.865 2.865 0 0 1 2.862-2.862 2.865 2.865 0 0 1 2.862 2.862v.326c0 2.945 2.388 5.17 5.333 5.17s5.333-2.549 5.333-5.494c0-7.463-6.067-13.53-13.528-13.53zM414.76 336.915h-59.224c-13.292 0-24.104 10.812-24.104 24.104v59.224c0 13.292 10.812 24.104 24.104 24.104h59.224c13.292 0 24.104-10.812 24.104-24.104v-59.224c.001-13.292-10.812-24.104-24.104-24.104zm13.439 83.328c0 7.409-6.029 13.437-13.437 13.437h-59.224c-7.409 0-13.437-6.029-13.437-13.437v-59.224c0-7.409 6.029-13.437 13.437-13.437h59.224c7.409 0 13.437 6.029 13.437 13.437v59.224z"></path>
  <path d="M385.149 362.49c-15.515 0-28.141 12.625-28.141 28.141 0 15.515 12.625 28.141 28.141 28.141s28.141-12.625 28.141-28.141c0-15.516-12.626-28.141-28.141-28.141zm0 45.615c-9.635 0-17.474-7.838-17.474-17.474 0-9.635 7.838-17.474 17.474-17.474 9.635 0 17.474 7.838 17.474 17.474 0 9.635-7.839 17.474-17.474 17.474zm25.463-51.368c-1.778 1.778-2.169 4.27-.692 6.721.95 1.415 2.61 2.399 4.479 2.399 1.791 0 3.468-.971 4.427-2.399 1.319-2.192 1.242-4.787-.692-6.721-1.975-1.974-5.548-1.974-7.522 0zM372.698 100.65c-3.505-2.641-8.552-.156-8.552 4.252v39.911c0 4.4 5.042 6.9 8.542 4.26l26.43-19.901c2.818-2.12 2.841-6.369.011-8.513l-26.431-20.009zm2.115 33.472V115.63l12.245 9.274-12.245 9.218z"></path>
</svg>
