<svg xmlns="http://www.w3.org/2000/svg" width="42" height="42" id="truck">
  <path fill-rule="evenodd" d="M21 0C9.408 0 0 9.408 0 21s9.408 21 21 21 21-9.408 21-21S32.592 0 21 0zm0 1c11.052 0 20 8.948 20 20s-8.948 20-20 20S1 32.052 1 21 9.948 1 21 1zM5.498 11.012a.5.5 0 0 0-.5.5v16a.5.5 0 0 0 .5.5h4.58c-.023.16-.05.321-.05.488 0 1.927 1.572 3.5 3.5 3.5 1.926 0 3.5-1.573 3.5-3.5 0-.167-.029-.328-.051-.488h8.521a.5.5 0 0 0 .1-.012h.98c-.024.164-.05.33-.05.5 0 1.927 1.572 3.5 3.5 3.5 1.926 0 3.5-1.573 3.5-3.5 0-.17-.028-.336-.051-.5h3.021a.5.5 0 0 0 .5-.5v-2.963a.5.5 0 0 0 .004-.035v-2.006a.5.5 0 0 0-.004-.05v-2.948a.5.5 0 0 0-.123-.33.5.5 0 0 0-.063-.078l-5.181-5.92a.5.5 0 0 0-.377-.17h-5.256v-1.488a.5.5 0 0 0-.5-.5h-20zm.5 1h19V23h-19V12.012zM8.02 13a.5.5 0 0 0-.493.506V21.5a.5.5 0 1 0 1 0v-7.994A.5.5 0 0 0 8.02 13zm3 0a.5.5 0 0 0-.493.506V21.5a.5.5 0 1 0 1 0v-7.994A.5.5 0 0 0 11.02 13zm3 0a.5.5 0 0 0-.493.506V21.5a.5.5 0 1 0 1 0v-7.994A.5.5 0 0 0 14.02 13zm3 0a.5.5 0 0 0-.493.506V21.5a.5.5 0 1 0 1 0v-7.994A.5.5 0 0 0 17.02 13zm3 0a.5.5 0 0 0-.493.506V21.5a.5.5 0 1 0 1 0v-7.994A.5.5 0 0 0 20.02 13zm3 0a.5.5 0 0 0-.493.506V21.5a.5.5 0 1 0 1 0v-7.994A.5.5 0 0 0 23.02 13zm2.978 1h5.03l4.376 4.998h-9.406V14zm.03 5.998h9.97v1.998h-1.473a.5.5 0 0 0-.5.5v2.006a.5.5 0 0 0 .5.5h1.473V27h-2.822a3.498 3.498 0 0 0-3.149-2 3.498 3.498 0 0 0-3.148 2h-.852V19.998zm1.44 1.502a.5.5 0 1 0 .052 1h1.015a.5.5 0 1 0 0-1H27.52a.5.5 0 0 0-.051 0zm7.557 1.496h.973v1.006h-.973v-1.006zM5.998 24h19v3.012h-8.314A3.5 3.5 0 0 0 13.527 25a3.5 3.5 0 0 0-3.156 2.012H5.998V26H7.52a.5.5 0 1 0 0-1H5.998v-1zm7.53 2c1.386 0 2.5 1.113 2.5 2.5s-1.114 2.5-2.5 2.5a2.492 2.492 0 0 1-2.5-2.5c0-1.387 1.113-2.5 2.5-2.5zm16.5 0c1.386 0 2.5 1.113 2.5 2.5s-1.114 2.5-2.5 2.5a2.492 2.492 0 0 1-2.5-2.5c0-1.387 1.113-2.5 2.5-2.5zm-16.5 1c-.823 0-1.5.677-1.5 1.5s.677 1.5 1.5 1.5c.822 0 1.5-.677 1.5-1.5s-.678-1.5-1.5-1.5zm16.5 0c-.823 0-1.5.677-1.5 1.5s.677 1.5 1.5 1.5c.822 0 1.5-.677 1.5-1.5s-.678-1.5-1.5-1.5zm-16.5 1c.281 0 .5.218.5.5 0 .282-.219.5-.5.5a.493.493 0 0 1-.5-.5c0-.282.217-.5.5-.5zm16.5 0c.281 0 .5.218.5.5 0 .282-.219.5-.5.5a.493.493 0 0 1-.5-.5c0-.282.217-.5.5-.5z" color="#000" font-family="sans-serif" font-weight="400" overflow="visible" style="line-height:normal;text-indent:0;text-align:start;text-decoration-line:none;text-decoration-style:solid;text-decoration-color:#000;text-transform:none;block-progression:tb;isolation:auto;mix-blend-mode:normal"></path>
</svg>
